# xmcd
#
# Track frame offsets: 
#        187
#        18627
#        51227
#        79632
#        90240
#        103442
#        114840
#        129002
#        142710
#        154747
#
# Disc length: 2263 seconds
#
# Revision: 4
# Processed by: cddbd v1.5.2PL0 Copyright (c) Steve Scherf et al.
# Submitted via: ExactAudioCopy v0.95a4
#
DISCID=6e08d50a
DTITLE=Buddy Guy - I Was Walking Through the Woods
DYEAR=1970
DGENRE=Blues
TTITLE0=Watch Yourself
TTITLE1=Stone Crazy
TTITLE2=I Found a True Love
TTITLE3=First Time I Met the Blues
TTITLE4=Let Me Love You Baby
TTITLE5=No Lie
TTITLE6=I Got a Strange Feeling
TTITLE7=My Time After a While
TTITLE8=Ten Years Ago
TTITLE9=Broken-hearted Blues
EXTD=
EXTT0=
EXTT1=
EXTT2=
EXTT3=
EXTT4=
EXTT5=
EXTT6=
EXTT7=
EXTT8=
EXTT9=
PLAYORDER=
